<mxfile host="app.diagrams.net" agent="Mozilla/5.0 (Macintosh; Intel Mac OS X 10_15_7) AppleWebKit/605.1.15 (KHTML, like Gecko) Version/26.0.1 Safari/605.1.15" border="50" scale="3" compressed="false" locked="false" version="28.2.7">
  <diagram name="Blank" id="YmL12bMKpDGza6XwsDPr">
    <mxGraphModel dx="1018" dy="606" grid="1" gridSize="10" guides="1" tooltips="1" connect="1" arrows="1" fold="1" page="1" pageScale="1" pageWidth="1169" pageHeight="827" background="none" math="1" shadow="0">
      <root>
        <mxCell id="X5NqExCQtvZxIxQ7pmgY-0" />
        <mxCell id="1" parent="X5NqExCQtvZxIxQ7pmgY-0" />
        <mxCell id="PiNqOppHkrDKJdgff9Hh-7" style="edgeStyle=orthogonalEdgeStyle;rounded=0;orthogonalLoop=1;jettySize=auto;html=1;exitX=1;exitY=0.5;exitDx=0;exitDy=0;entryX=0;entryY=0.5;entryDx=0;entryDy=0;" edge="1" parent="1" source="PiNqOppHkrDKJdgff9Hh-1" target="PiNqOppHkrDKJdgff9Hh-2">
          <mxGeometry relative="1" as="geometry" />
        </mxCell>
        <mxCell id="PiNqOppHkrDKJdgff9Hh-1" value="Define project" style="rounded=1;whiteSpace=wrap;html=1;" vertex="1" parent="1">
          <mxGeometry x="40" y="120" width="120" height="60" as="geometry" />
        </mxCell>
        <mxCell id="PiNqOppHkrDKJdgff9Hh-8" style="edgeStyle=orthogonalEdgeStyle;rounded=0;orthogonalLoop=1;jettySize=auto;html=1;exitX=1;exitY=0.5;exitDx=0;exitDy=0;entryX=0;entryY=0.5;entryDx=0;entryDy=0;" edge="1" parent="1" source="PiNqOppHkrDKJdgff9Hh-2" target="PiNqOppHkrDKJdgff9Hh-3">
          <mxGeometry relative="1" as="geometry" />
        </mxCell>
        <mxCell id="PiNqOppHkrDKJdgff9Hh-2" value="Define data and establish baseline" style="rounded=1;whiteSpace=wrap;html=1;" vertex="1" parent="1">
          <mxGeometry x="200" y="120" width="120" height="60" as="geometry" />
        </mxCell>
        <mxCell id="PiNqOppHkrDKJdgff9Hh-9" style="edgeStyle=orthogonalEdgeStyle;rounded=0;orthogonalLoop=1;jettySize=auto;html=1;exitX=1;exitY=0.5;exitDx=0;exitDy=0;entryX=0;entryY=0.5;entryDx=0;entryDy=0;" edge="1" parent="1" source="PiNqOppHkrDKJdgff9Hh-3" target="PiNqOppHkrDKJdgff9Hh-4">
          <mxGeometry relative="1" as="geometry" />
        </mxCell>
        <mxCell id="PiNqOppHkrDKJdgff9Hh-3" value="Label and organise data" style="rounded=1;whiteSpace=wrap;html=1;" vertex="1" parent="1">
          <mxGeometry x="360" y="120" width="120" height="60" as="geometry" />
        </mxCell>
        <mxCell id="PiNqOppHkrDKJdgff9Hh-10" style="edgeStyle=orthogonalEdgeStyle;rounded=0;orthogonalLoop=1;jettySize=auto;html=1;exitX=1;exitY=0.5;exitDx=0;exitDy=0;entryX=0;entryY=0.5;entryDx=0;entryDy=0;" edge="1" parent="1" source="PiNqOppHkrDKJdgff9Hh-4" target="PiNqOppHkrDKJdgff9Hh-5">
          <mxGeometry relative="1" as="geometry" />
        </mxCell>
        <mxCell id="PiNqOppHkrDKJdgff9Hh-4" value="Select and train model" style="rounded=1;whiteSpace=wrap;html=1;" vertex="1" parent="1">
          <mxGeometry x="520" y="120" width="120" height="60" as="geometry" />
        </mxCell>
        <mxCell id="PiNqOppHkrDKJdgff9Hh-11" style="edgeStyle=orthogonalEdgeStyle;rounded=0;orthogonalLoop=1;jettySize=auto;html=1;exitX=1;exitY=0.5;exitDx=0;exitDy=0;entryX=0;entryY=0.5;entryDx=0;entryDy=0;" edge="1" parent="1" source="PiNqOppHkrDKJdgff9Hh-5" target="PiNqOppHkrDKJdgff9Hh-6">
          <mxGeometry relative="1" as="geometry" />
        </mxCell>
        <mxCell id="PiNqOppHkrDKJdgff9Hh-5" value="Perform iterative&amp;nbsp;&lt;div&gt;error analysis&lt;/div&gt;" style="rounded=1;whiteSpace=wrap;html=1;" vertex="1" parent="1">
          <mxGeometry x="680" y="120" width="120" height="60" as="geometry" />
        </mxCell>
        <mxCell id="PiNqOppHkrDKJdgff9Hh-6" value="Deploy, monitor,&amp;nbsp;&lt;div&gt;and maintain&lt;/div&gt;" style="rounded=1;whiteSpace=wrap;html=1;" vertex="1" parent="1">
          <mxGeometry x="840" y="120" width="120" height="60" as="geometry" />
        </mxCell>
      </root>
    </mxGraphModel>
  </diagram>
</mxfile>
